<svg class="pt-logo-svg___fxUwq" width="100%" height="100%" viewBox="0 0 136 30" fill="none" xmlns="http://www.w3.org/2000/svg">
<g>
<path fill-rule="evenodd main-p" clip-rule="evenodd" d="M23.0651 5.39268C23.0872 5.34158 23.111 5.26755 23.1308 5.23126C23.6138 3.8595 24.3763 4.79682 24.7921 4.72534C25.4475 4.52269 25.8225 3.93925 25.9607 3.11448C26.0461 2.62067 26.0965 1.60726 25.8316 1.18588C25.6722 0.931487 25.1101 0.505808 24.1209 0.316529C21.9429 -0.104374 18.0991 -0.0988022 14.7741 0.293287C12.3042 0.590498 9.06487 1.28919 4.76574 2.86901C3.29651 3.40899 0.999495 3.6984 0.319171 5.45635C-0.231933 6.87602 -0.0227504 7.64094 0.590725 8.00055C1.9429 8.79062 5.26103 7.61706 6.76018 7.14331C6.8016 7.17658 6.84542 7.20985 6.90827 7.2584C6.35812 10.3558 5.14269 14.0801 4.77102 17.5091C4.0085 19.7479 2.5399 25.3041 3.76557 27.5017C6.29447 29.0347 7.83776 24.6886 7.64681 24.5422C8.28715 22.6277 10.2918 14.2407 10.5288 11.9718C10.5854 11.4006 10.6337 10.9424 10.7225 10.3497C10.8935 9.19736 10.9147 8.0507 11.11 6.96804C11.1636 6.66621 11.3376 6.41691 11.5859 6.21554C12.6867 5.31706 15.2695 5.30353 15.7091 5.30353C16.0512 5.22107 17.0029 5.07604 17.7613 4.83407C18.0963 4.72837 18.0992 5.2104 18.0086 5.76932C17.9177 6.32458 17.7357 6.95737 17.6946 7.15334C17.5988 7.61865 17.5057 8.01711 17.3954 8.50774C17.2575 9.12238 16.9724 10.3765 16.3188 13.1749C14.838 19.9288 13.6931 25.9361 14.9537 29.1965C15.2565 29.6376 16.2833 30.1091 16.5803 29.9774C17.3402 29.8375 17.8867 29.5082 18.2812 29.061C18.9715 28.2789 19.1869 27.1324 19.2445 25.9997C19.3484 23.9255 19.643 20.7488 20.1194 17.6141C20.4356 15.5338 21.4345 10.9045 22.2533 7.89278C22.565 6.74915 22.8615 5.85433 23.0651 5.39268Z" fill="#ED1C24"></path>
</g>
</svg>