<svg width="26" height="30" xmlns="http://www.w3.org/2000/svg" class="pt-logo-svg___fxUwq">

 <g>
  <title>background</title>
  <rect fill="none" id="canvas_background" height="32" width="28" y="-1" x="-1"/>
 </g>
 <g>
  <title>Layer 1</title>
  <g id="svg_1">
   <path id="svg_2" fill="#ED1C24" d="m23.0651,5.39268c0.0221,-0.0511 0.0459,-0.12513 0.0657,-0.16142c0.483,-1.37176 1.2455,-0.43444 1.6613,-0.50592c0.6554,-0.20265 1.0304,-0.78609 1.1686,-1.61086c0.0854,-0.49381 0.1358,-1.50722 -0.1291,-1.9286c-0.1594,-0.25439 -0.7215,-0.68007 -1.7107,-0.86935c-2.178,-0.4209 -6.0218,-0.41533 -9.3468,-0.02324c-2.4699,0.29721 -5.70923,0.9959 -10.00836,2.57572c-1.46923,0.53998 -3.76624,0.82939 -4.44657,2.58734c-0.5511,1.41967 -0.34192,2.18459 0.27156,2.5442c1.35217,0.79007 4.6703,-0.38349 6.16945,-0.85724c0.04142,0.03327 0.08524,0.06654 0.14809,0.11509c-0.55015,3.0974 -1.76558,6.8217 -2.13725,10.2507c-0.76252,2.2388 -2.23112,7.795 -1.00545,9.9926c2.5289,1.533 4.07219,-2.8131 3.88124,-2.9595c0.64034,-1.9145 2.64499,-10.3015 2.88199,-12.5704c0.0566,-0.5712 0.1049,-1.0294 0.1937,-1.6221c0.171,-1.15234 0.1922,-2.299 0.3875,-3.38166c0.0536,-0.30183 0.2276,-0.55113 0.4759,-0.7525c1.1008,-0.89848 3.6836,-0.91201 4.1232,-0.91201c0.3421,-0.08246 1.2938,-0.22749 2.0522,-0.46946c0.335,-0.1057 0.3379,0.37633 0.2473,0.93525c-0.0909,0.55526 -0.2729,1.18805 -0.314,1.38402c-0.0958,0.46531 -0.1889,0.86377 -0.2992,1.3544c-0.1379,0.61464 -0.423,1.86876 -1.0766,4.66716c-1.4808,6.7539 -2.6257,12.7612 -1.3651,16.0216c0.3028,0.4411 1.3296,0.9126 1.6266,0.7809c0.7599,-0.1399 1.3064,-0.4692 1.7009,-0.9164c0.6903,-0.7821 0.9057,-1.9286 0.9633,-3.0613c0.1039,-2.0742 0.3985,-5.2509 0.8749,-8.3856c0.3162,-2.0803 1.3151,-6.7096 2.1339,-9.72132c0.3117,-1.14363 0.6082,-2.03845 0.8118,-2.5001z" clip-rule="evenodd" fill-rule="evenodd main-p"/>
  </g>
 </g>
</svg>