<svg xmlns="http://www.w3.org/2000/svg" width="51" height="54" class="pt-logo-svg___fxUwq">

 <g>
  <title>background</title>
  <rect fill="none" id="canvas_background" height="56" width="53" y="-1" x="-1"/>
 </g>
 <g>
  <title>Layer 1</title>
  <g stroke="null" id="svg_1">
   <path stroke="null" id="svg_2" fill="#ED1C24" d="m37.052097,19.047852c0.02374,-0.0511 0.049305,-0.12513 0.070574,-0.16142c0.518832,-1.37176 1.3379,-0.43444 1.784547,-0.50592c0.704022,-0.20265 1.106842,-0.78609 1.255295,-1.61086c0.091736,-0.49381 0.145875,-1.50722 -0.138678,-1.9286c-0.171225,-0.25439 -0.775026,-0.68007 -1.837612,-0.86935c-2.33958,-0.4209 -6.46854,-0.41533 -10.040213,-0.02324c-2.653135,0.29721 -6.132782,0.9959 -10.750852,2.57572c-1.578228,0.53998 -4.045647,0.82939 -4.776449,2.58734c-0.591985,1.41967 -0.367286,2.18459 0.291706,2.5442c1.452484,0.79007 5.016776,-0.38349 6.627144,-0.85724c0.044493,0.03327 0.091564,0.06654 0.159076,0.11509c-0.590964,3.0974 -1.896563,6.8217 -2.295807,10.2507c-0.819089,2.2388 -2.396641,7.795 -1.080042,9.9926c2.716512,1.533 4.374294,-2.8131 4.169178,-2.9595c0.687845,-1.9145 2.841214,-10.3015 3.095797,-12.5704c0.060799,-0.5712 0.112682,-1.0294 0.20807,-1.6221c0.183686,-1.15234 0.206459,-2.299 0.416248,-3.38166c0.057576,-0.30183 0.244485,-0.55113 0.511206,-0.7525c1.182465,-0.89848 3.956876,-0.91201 4.429089,-0.91201c0.367479,-0.08246 1.389783,-0.22749 2.204447,-0.46946c0.359853,-0.1057 0.362968,0.37633 0.265646,0.93525c-0.097644,0.55526 -0.293146,1.18805 -0.337295,1.38402c-0.102907,0.46531 -0.202914,0.86377 -0.321397,1.3544c-0.14813,0.61464 -0.454381,1.86876 -1.15647,4.66716c-1.590656,6.7539 -2.820493,12.7612 -1.466373,16.0216c0.325264,0.4411 1.428239,0.9126 1.747273,0.7809c0.816275,-0.1399 1.403318,-0.4692 1.827085,-0.9164c0.741511,-0.7821 0.972891,-1.9286 1.034765,-3.0613c0.111608,-2.0742 0.428064,-5.2509 0.939806,-8.3856c0.339658,-2.0803 1.412664,-6.7096 2.292208,-9.72132c0.334824,-1.14363 0.653321,-2.03845 0.872025,-2.5001z" clip-rule="evenodd" fill-rule="evenodd"/>
  </g>
  <ellipse stroke="#000" ry="21.10345" rx="22.068966" id="svg_6" cy="27.439655" cx="25.431035" stroke-opacity="null" stroke-width="0.5" fill="none"/>
  <ellipse stroke="#000" ry="23.724137" rx="24.448276" id="svg_7" cy="27.646549" cx="25.500001" stroke-opacity="null" stroke-width="0.5" fill="none"/>
 </g>
</svg>